<?xml version="1.0" standalone="no"?>
<!DOCTYPE svg PUBLIC "-//W3C//DTD SVG 20010904//EN"
 "http://www.w3.org/TR/2001/REC-SVG-20010904/DTD/svg10.dtd">
<svg version="1.0" xmlns="http://www.w3.org/2000/svg"
 width="1080.000000pt" height="1080.000000pt" viewBox="0 0 1080.000000 1080.000000"
 preserveAspectRatio="xMidYMid meet">

<g transform="translate(0.000000,1080.000000) scale(0.100000,-0.100000)"
fill="#000000" stroke="none">
<path d="M6130 7811 l0 -99 98 -32 c233 -77 307 -154 350 -362 16 -77 17 -241
17 -2163 0 -2281 3 -2166 -58 -2298 -51 -111 -118 -161 -298 -221 l-104 -35
-3 -101 -3 -100 883 2 883 3 3 98 c2 73 -1 98 -10 101 -7 2 -58 16 -112 30
-126 34 -192 66 -253 120 -81 73 -119 160 -150 336 -14 81 -17 213 -20 880
l-5 786 421 -4 c523 -6 706 9 1016 83 511 121 893 437 1074 890 101 253 126
394 126 720 0 220 -3 263 -22 360 -114 562 -460 888 -1093 1030 -297 67 -479
75 -1722 75 l-1018 0 0 -99z m2055 -271 c438 -49 698 -207 862 -525 92 -180
122 -321 130 -611 8 -319 -25 -525 -117 -722 -139 -297 -376 -465 -760 -541
-173 -34 -283 -41 -625 -41 l-325 0 2 1218 3 1217 90 6 c161 10 648 9 740 -1z"/>
<path d="M2651 7838 c-19 -58 -192 -671 -241 -853 -45 -168 -48 -174 -88 -184
-20 -6 -84 -15 -142 -21 -438 -46 -926 -160 -1206 -283 -155 -67 -230 -113
-311 -190 -82 -79 -99 -105 -113 -175 -19 -103 41 -219 159 -306 200 -147 594
-279 1081 -361 85 -15 159 -31 164 -35 5 -5 2 -33 -7 -67 -9 -32 -84 -303
-167 -603 -83 -300 -196 -709 -252 -910 -55 -201 -167 -603 -248 -895 -81
-291 -146 -533 -143 -538 2 -4 271 -7 598 -7 l594 0 10 38 c13 46 107 451 162
692 21 96 46 199 55 228 l15 54 589 -4 c323 -1 591 -6 595 -10 4 -4 71 -229
149 -500 l141 -493 593 -3 c389 -1 592 1 592 8 0 5 -47 191 -104 412 -58 222
-170 657 -251 968 -80 311 -182 702 -225 870 -155 597 -189 735 -182 742 4 3
88 21 187 38 640 111 1025 248 1227 437 76 72 102 123 102 202 0 83 -23 130
-102 209 -218 215 -831 406 -1566 487 -76 9 -146 20 -156 25 -13 7 -62 142
-170 467 -192 576 -204 609 -233 617 -12 3 -261 6 -554 6 l-531 0 -21 -62z
m1149 -2083 c13 -12 19 -38 22 -103 6 -98 19 -130 72 -181 24 -24 36 -44 36
-63 0 -45 -23 -50 -174 -38 -132 10 -134 10 -187 -15 -30 -13 -73 -27 -96 -31
-37 -5 -48 -13 -73 -51 -35 -52 -37 -76 -18 -286 11 -121 10 -150 -5 -240 -10
-56 -17 -130 -17 -164 0 -54 -3 -64 -22 -77 -38 -23 -93 -28 -134 -11 -48 20
-90 19 -141 -5 -30 -13 -43 -25 -43 -39 0 -26 72 -87 123 -103 32 -10 43 -20
52 -48 11 -32 54 -70 81 -70 5 0 59 29 119 65 60 36 120 65 132 65 32 0 85 50
85 80 1 31 -26 141 -106 435 -41 149 -38 161 37 196 46 20 137 25 154 8 6 -6
64 -12 135 -13 75 -2 133 -8 147 -16 23 -12 24 -15 18 -116 -5 -99 -6 -106
-36 -139 -17 -20 -31 -44 -31 -53 0 -31 -53 -103 -154 -209 l-98 -103 7 -75
c6 -62 5 -79 -9 -93 -12 -15 -14 -25 -6 -53 16 -56 13 -90 -10 -96 -11 -3 -20
-14 -20 -24 0 -29 -24 -33 -83 -16 -80 23 -277 57 -327 57 -48 0 -76 -6 -214
-47 -91 -28 -108 -42 -85 -69 26 -32 59 -35 266 -23 204 12 204 12 226 -10 20
-20 21 -23 7 -49 -23 -39 -114 -71 -211 -71 -63 -1 -79 -4 -95 -22 -34 -38 -4
-58 131 -89 52 -11 88 -40 99 -76 9 -30 -30 -83 -87 -118 -44 -27 -58 -30
-158 -34 -130 -5 -171 7 -258 76 -116 93 -305 292 -339 358 -10 19 -43 196
-136 726 -15 81 -35 171 -45 200 -11 29 -22 96 -25 148 -6 88 -4 105 29 230
19 74 53 207 75 295 22 88 47 166 54 174 20 19 91 29 216 31 58 1 146 6 195
10 50 5 274 7 499 4 351 -3 411 -6 426 -19z"/>
<path d="M2630 5375 c-64 -18 -148 -63 -160 -85 -5 -10 -10 -37 -10 -60 0 -50
36 -93 72 -86 51 11 126 16 141 10 9 -3 19 -19 22 -35 6 -29 8 -29 74 -29 86
0 174 -30 221 -76 60 -57 93 -41 144 69 23 49 26 68 24 134 -3 70 -5 78 -31
97 -24 17 -41 21 -100 19 -89 -3 -183 10 -266 37 -72 23 -70 23 -131 5z"/>
</g>
</svg>
